# xmcd
#
# Track frame offsets: 
#        150
#        21575
#        34958
#        48623
#        68128
#        88818
#        101940
#        122043
#        135668
#        157540
#        171775
#        186955
#        203650
#        221170
#
# Disc length: 3200 seconds
#
# Revision: 5
# Processed by: cddbd v1.5.2PL0 Copyright (c) Steve Scherf et al.
# Submitted via: ExactAudioCopyFreeDBPlugin 1.0
#
DISCID=ce0c7e0e
DTITLE=Muddy Waters and Otis Spann - Live At Newport
DYEAR=1996
DGENRE=Blues
TTITLE0=Got My Brand On You
TTITLE1=I'm Your Hoochie Coochie Man
TTITLE2=Baby, Please Don't Go
TTITLE3=Soon Forgotten
TTITLE4=Tiger In Your Tank
TTITLE5=I Feel So Good
TTITLE6=Got My Mojo Workin' (Part 1)
TTITLE7=Got My Mojo Workin' (Part 2)
TTITLE8=Goodbye Newport Blues
TTITLE9=Catfish Blues
TTITLE10=Boogie Woogie
TTITLE11=Slow Blues
TTITLE12=Jump Blues
TTITLE13=St. Louis Blues
EXTD=
EXTT0=
EXTT1=
EXTT2=
EXTT3=
EXTT4=
EXTT5=
EXTT6=
EXTT7=
EXTT8=
EXTT9=
EXTT10=
EXTT11=
EXTT12=
EXTT13=
PLAYORDER=
